<svg width="54" height="40" viewBox="0 0 54 40" fill="none" xmlns="http://www.w3.org/2000/svg">
<path d="M45.267 3.31745C41.8672 1.78422 38.223 0.650958 34.4121 0.00655549C34.3782 4.01793e-05 34.3431 0.00423888 34.3116 0.018571C34.2802 0.0329031 34.254 0.0566596 34.2366 0.0865503C33.77 0.906496 33.25 1.97532 32.8856 2.8197C28.8438 2.21583 24.7348 2.21583 20.693 2.8197C20.2871 1.8839 19.8294 0.971435 19.322 0.0865503C19.3048 0.0562916 19.2788 0.0319977 19.2474 0.0169107C19.2161 0.00182358 19.1809 -0.00333937 19.1465 0.00211113C15.3378 0.646513 11.6936 1.77977 8.29164 3.31523C8.26237 3.3275 8.23756 3.34844 8.22053 3.37522C1.30543 13.5412 -0.590001 23.4561 0.341049 33.2466C0.343639 33.2706 0.351083 33.2938 0.362925 33.3148C0.374767 33.3358 0.390761 33.3542 0.409933 33.3688C4.4461 36.3073 8.9479 38.5458 13.7268 39.9906C13.7601 40.0009 13.7958 40.0008 13.8291 39.9905C13.8624 39.9802 13.8918 39.9601 13.9135 39.9328C14.9401 38.5551 15.8556 37.0997 16.6378 35.5709C16.6844 35.482 16.64 35.3753 16.5466 35.3398C15.1112 34.7992 13.7204 34.1469 12.3869 33.3888C12.363 33.3751 12.3428 33.3557 12.3282 33.3323C12.3136 33.3089 12.305 33.2822 12.3032 33.2547C12.3015 33.2272 12.3066 33.1996 12.3181 33.1746C12.3296 33.1495 12.3471 33.1277 12.3691 33.111C12.6491 32.9044 12.9291 32.6889 13.1958 32.4733C13.2198 32.4539 13.2487 32.4416 13.2793 32.4377C13.3099 32.4337 13.341 32.4384 13.3691 32.4511C22.0952 36.3708 31.5457 36.3708 40.1695 32.4511C40.1977 32.4376 40.2291 32.4324 40.2602 32.4359C40.2912 32.4394 40.3206 32.4516 40.3451 32.4711C40.6117 32.6889 40.8895 32.9044 41.1717 33.111C41.1939 33.1273 41.2118 33.1488 41.2236 33.1737C41.2355 33.1986 41.241 33.226 41.2397 33.2535C41.2384 33.281 41.2303 33.3078 41.2161 33.3314C41.2019 33.355 41.1821 33.3747 41.1584 33.3888C39.8296 34.1532 38.4474 34.7998 36.9964 35.3376C36.9741 35.3457 36.9538 35.3584 36.9369 35.375C36.9199 35.3915 36.9067 35.4115 36.898 35.4336C36.8894 35.4557 36.8856 35.4794 36.8869 35.503C36.8881 35.5267 36.8944 35.5498 36.9053 35.5709C37.7053 37.0975 38.6208 38.5507 39.6274 39.9306C39.6483 39.9589 39.6774 39.9801 39.7108 39.9912C39.7442 40.0024 39.7803 40.0029 39.814 39.9928C44.6011 38.5521 49.1103 36.3126 53.1509 33.3688C53.1706 33.355 53.1872 33.3372 53.1994 33.3165C53.2117 33.2958 53.2194 33.2727 53.222 33.2488C54.3331 21.9296 51.3599 12.0946 45.3359 3.37967C45.3211 3.35135 45.2967 3.32927 45.267 3.31745ZM17.9421 27.2848C15.3156 27.2848 13.1491 24.9094 13.1491 21.9962C13.1491 19.0809 15.2734 16.7077 17.9421 16.7077C20.6308 16.7077 22.7774 19.1009 22.7351 21.9962C22.7351 24.9116 20.6108 27.2848 17.9421 27.2848ZM35.6632 27.2848C33.0345 27.2848 30.8702 24.9094 30.8702 21.9962C30.8702 19.0809 32.9922 16.7077 35.6632 16.7077C38.3519 16.7077 40.4984 19.1009 40.4562 21.9962C40.4562 24.9116 38.3541 27.2848 35.6632 27.2848Z" fill="white"/>
</svg>
