<svg width="50" height="40" viewBox="0 0 50 40" fill="none" xmlns="http://www.w3.org/2000/svg">
<path d="M49.12 4.74473C47.3338 5.54653 45.415 6.08828 43.3978 6.33316C45.4792 5.0715 47.0364 3.0858 47.7788 0.746578C45.8233 1.92325 43.683 2.75149 41.4512 3.19531C39.9503 1.57192 37.9624 0.495911 35.796 0.134339C33.6296 -0.227233 31.406 0.145862 29.4703 1.1957C27.5347 2.24554 25.9954 3.91338 25.0913 5.94028C24.1873 7.96719 23.9691 10.2398 24.4706 12.4051C20.5083 12.2036 16.632 11.1603 13.0934 9.34294C9.55486 7.52558 6.43303 4.97478 3.93057 1.85609C3.07491 3.35134 2.58291 5.08495 2.58291 6.93125C2.58196 8.59335 2.986 10.23 3.75918 11.696C4.53237 13.1619 5.65079 14.4119 7.01522 15.335C5.43284 15.284 3.88538 14.8508 2.50162 14.0716V14.2016C2.50146 16.5328 3.29746 18.7922 4.75453 20.5965C6.21161 22.4008 8.24003 23.6388 10.4956 24.1006C9.02769 24.503 7.48869 24.5623 5.99485 24.2739C6.63124 26.2797 7.87087 28.0338 9.5402 29.2904C11.2095 30.5471 13.225 31.2434 15.3044 31.2821C11.7745 34.0892 7.415 35.612 2.92731 35.6053C2.13237 35.6055 1.33809 35.5584 0.548584 35.4644C5.10384 38.4314 10.4065 40.0061 15.8221 40C34.1546 40 44.1764 24.6185 44.1764 11.2783C44.1764 10.8449 44.1658 10.4072 44.1465 9.97375C46.0959 8.54563 47.7786 6.77717 49.1157 4.75123L49.12 4.74473Z" fill="white"/>
</svg>
